inDegrees=no
num_controls=7
num_derivatives=13
num_iterations=43
num_multipliers=7
num_parameters=0
num_slacks=7
num_states=26
objective=0.385600
objective_accelerations=0.000000
objective_balance=0.009483
objective_effort=0.035149
objective_height=0.338661
objective_ligament=0.002307
solver_duration=551.792629
status=Solve_Succeeded
success=true
DataType=double
version=3
OpenSimVersion=4.5
endheader
time	/jointset/ground_pelvis/pelvis_tilt/value	/jointset/ground_pelvis/pelvis_tx/value	/jointset/ground_pelvis/pelvis_ty/value	/jointset/hip_l/hip_flexion_l/value	/jointset/hip_l/hip_adduction_l/value	/jointset/hip_l/hip_rotation_l/value	/jointset/back/lumbar_extension/value	/jointset/patellofemoral_l/patellar_flexion_l/value	/jointset/knee_l/knee_flexion_l/value	/jointset/knee_l/knee_adduction_l/value	/jointset/knee_l/knee_rotation_l/value	/jointset/ankle_l/ankle_angle_l/value	/jointset/subtalar_l/subtalar_angle_l/value	/jointset/ground_pelvis/pelvis_tilt/speed	/jointset/ground_pelvis/pelvis_tx/speed	/jointset/ground_pelvis/pelvis_ty/speed	/jointset/hip_l/hip_flexion_l/speed	/jointset/hip_l/hip_adduction_l/speed	/jointset/hip_l/hip_rotation_l/speed	/jointset/back/lumbar_extension/speed	/jointset/patellofemoral_l/patellar_flexion_l/speed	/jointset/knee_l/knee_flexion_l/speed	/jointset/knee_l/knee_adduction_l/speed	/jointset/knee_l/knee_rotation_l/speed	/jointset/ankle_l/ankle_angle_l/speed	/jointset/subtalar_l/subtalar_angle_l/speed	/forceset/tau_hip_flexion_l	/forceset/tau_hip_adduction_l	/forceset/tau_hip_rotation_l	/forceset/tau_knee_flexion_l	/forceset/tau_ankle_angle_l	/forceset/tau_subtalar_angle_l	/forceset/tau_lumbar_extension	lambda_cid13_p0	lambda_cid13_p1	lambda_cid13_p2	lambda_cid13_p3	lambda_cid13_p4	lambda_cid13_p5	lambda_cid14_p0	/jointset/ground_pelvis/pelvis_tilt/accel	/jointset/ground_pelvis/pelvis_tx/accel	/jointset/ground_pelvis/pelvis_ty/accel	/jointset/hip_l/hip_flexion_l/accel	/jointset/hip_l/hip_adduction_l/accel	/jointset/hip_l/hip_rotation_l/accel	/jointset/back/lumbar_extension/accel	/jointset/patellofemoral_l/patellar_flexion_l/accel	/jointset/knee_l/knee_flexion_l/accel	/jointset/knee_l/knee_adduction_l/accel	/jointset/knee_l/knee_rotation_l/accel	/jointset/ankle_l/ankle_angle_l/accel	/jointset/subtalar_l/subtalar_angle_l/accel	gamma_cid13_p0	gamma_cid13_p1	gamma_cid13_p2	gamma_cid13_p3	gamma_cid13_p4	gamma_cid13_p5	gamma_cid14_p0
1.5	-0.3612520660307178	-0.03849082460233965	0.7291785059048791	1.322959229698364	-0.1949508806479121	0.1164248172154555	-0.1828049137993598	0.9915517373771208	0.9915517373769127	-0.02596950451664154	-0.0113090328563153	0.2388013250966094	0.1337076174643034	0.7320821698383461	0.1377516381969066	0.4494876202053404	-1.956234942277066	0.01992150500736013	0.04119202962849675	-0.08103719401065806	-1.398019292900407	-1.398019292900365	-0.1351420125255415	-0.3473478865170606	-0.2162865855723739	-0.04178464555862633	-0.1642432883789176	0.09211956745335211	-0.003625682546225567	-0.3708902561644811	0.1664113656026939	-0.0120767969755113	0.1570820994135927	9.277872316623046	16.91388502451408	-18.28323819273168	2.707003175538023	-646.0479436644888	-15.89614572431461	-7.72057814383874	1.169814167067766	0.2721213410328866	0.4377677262087986	-3.094138290059741	0.3930367345791029	-0.2899971435714808	-0.08806283163761466	-2.943241284293557	-2.943241284293557	1.135965388032232	-1.143113938915323	-1.097738435935163	0.1198659328498782	9.475674786616652e-08	-3.073402252461814e-07	3.480497162864519e-07	-1.673113748731729e-08	-1.338314208951259e-07	-6.782310701810264e-08	1.384459965476543e-08
1.51	-0.3538724659691597	-0.03709933033247277	0.7336945889853447	1.303242812762663	-0.1947312593490551	0.1168089569399433	-0.183618135111805	0.9774261677287012	0.9774261677273373	-0.02725182318950487	-0.01483162823333308	0.2365845200348757	0.1332970547511322	0.7438877016176679	0.1405856269397333	0.4536675210572951	-1.987023400912941	0.02405286271303967	0.03424447981282606	-0.08147582088563385	-1.426932625332078	-1.426932625332033	-0.1201413479033679	-0.3562265496365145	-0.2269850928533537	-0.04023452215036311	-0.1611788924658407	0.09262497442126891	-0.003994317908603655	-0.3680073700854672	0.1655578535596708	-0.01152005471873709	0.155570310962262	9.210581724104561	16.60433665770599	-18.14303785712762	2.385484256113739	-643.960316100183	-15.77765411060963	-8.552179712502713	1.193425349211855	0.294783479156043	0.3988598585454222	-3.067420337262557	0.4307923589981983	-1.105924271710347	-0.002075569982067094	-2.841091264690634	-2.841091264694763	1.859046118799321	-0.6185156284501419	-1.042511871947964	0.1867283053980221	1.108778114908549e-07	-5.866365759499648e-07	-1.449389127466526e-08	-5.851595475632396e-08	-1.122120050848637e-07	-1.861524128880602e-07	5.003225735843985e-08
1.52	-0.3463733100591357	-0.03567834700767904	0.7382506227931239	1.28321926710142	-0.1944688030590495	0.1170818630920002	-0.1844318052842747	0.9630163223470216	0.9630163223467759	-0.02834874939237628	-0.01841466486755739	0.2342634089007	0.1329048218242052	0.7559933400387668	0.1436494491822766	0.4574777656680679	-2.017660687025756	0.02848850323590603	0.0189453151513263	-0.08112696593624581	-1.454874439447337	-1.45487443944729	-0.09806351850159371	-0.3594361379555214	-0.2371478000441693	-0.03811868831851949	-0.1581144965525066	0.09313038138882028	-0.00436295327086287	-0.3651244840061032	0.1647043415171525	-0.01096331246224629	0.1540585225109879	9.135663475760612	16.29894310223079	-18.00671845465455	2.077583397154528	-641.9740200697094	-15.65783103369524	-9.431037511619998	1.229835495350668	0.3180880410371018	0.363836477984318	-3.063903785458672	0.4538932980049459	-1.960320112743723	0.0694335331954784	-2.748937621022937	-2.748937621022937	2.551398343941122	-0.009298978821488918	-0.9905784178142606	0.2330080175850471	2.263591124811509e-07	-1.695849703031904e-07	2.35477098917438e-07	-8.088068858107514e-09	-2.10230709302972e-07	-2.948280370210589e-07	1.068734056588816e-07
1.53	-0.3387617428487563	-0.03422733165448437	0.7428424266204098	1.262899955767642	-0.1941590224264776	0.1172549056839736	-0.1852342082557652	0.948327404744324	0.9483274047429228	-0.02925955760420415	-0.0220658738792772	0.231838036414347	0.1325362370487141	0.7653394349584741	0.1464164422174097	0.4607675567436189	-2.045166001232354	0.0335339598117096	0.02397193532127578	-0.07882360225437529	-1.483258267897459	-1.48325826789741	-0.08991195536598771	-0.3766824635178688	-0.2483970969547312	-0.03571187234052963	-0.1485524062201496	0.09408294138101143	-0.003135703533083823	-0.3693044059365277	0.1700005749196889	-0.01034959332710113	0.1473776601224355	10.94562804547885	15.9603268956819	-18.23238370060853	2.273878725682425	-640.0734331918075	-15.75577148269806	-10.32945823433066	0.6400097855850182	0.2354721844606984	0.2941228215849198	-2.438407972168949	0.5393281415780983	2.980546196177616	0.3902916039154447	-2.935529073173252	-2.935529073178477	-0.9246525944448519	-3.464114852751996	-1.262462675821759	0.2270152188975553	4.474106656724041e-07	9.873363389660438e-07	1.136244849222331e-06	1.403158141552825e-07	-4.353649160512224e-07	-3.932466243085389e-07	1.856588877183886e-07
1.54	-0.3310861120326813	-0.0327527529211618	0.7474636428383216	1.242336678743142	-0.1937968959673026	0.1177274931004808	-0.1859976768271612	0.9333441641333601	0.9333441641331257	-0.03026318776337482	-0.0260659092482176	0.2292860994891854	0.1321882197992472	0.7688060616986521	0.1483621252078552	0.4633602437932448	-2.066453824795959	0.03895766855566106	0.07885428006375769	-0.0733400858362193	-1.513739040994362	-1.513739040994309	-0.1166279079429663	-0.4292014093926136	-0.2624606877901338	-0.03400518312262722	-0.1389903158875885	0.09503550137277848	-0.001908453795244324	-0.3734843278666251	0.1752968083227605	-0.009735874192311436	0.1406967977339299	12.74407038234508	15.64338680110483	-18.48397769121182	2.523184230178794	-638.2998848867222	-15.74966818259472	-11.24355790713236	0.05394185936935115	0.1538260321642533	0.2244156728115054	-1.820405656871631	0.529543731622531	8.010824801756025	0.7054640804107161	-3.168326550391817	-3.168326550391817	-4.422104798587459	-7.063823041296833	-1.553437202690372	0.092982665587688	6.420831599404677e-06	-3.884815651392767e-06	-2.704281634365133e-06	-7.446210802232707e-07	-3.338469216527271e-06	-5.809631821025721e-06	3.700332196041504e-06
1.55	-0.3233713933332723	-0.03126018874159206	0.7521104386905264	1.221556029456337	-0.193392414088195	0.1184731383364298	-0.1867216025932691	0.9180470433597108	0.9180470433582847	-0.03134363111480781	-0.03039366178700354	0.2265861773525272	0.1318398703475727	0.7765078372951315	0.1502734672082874	0.4662367339423036	-2.092306435316214	0.04122287066893688	0.02479759147459877	-0.07406032229576139	-1.545770930616021	-1.545770930615964	-0.0691672978837025	-0.402524533624432	-0.2772806231853697	-0.03637773656775906	-0.1372501885229095	0.09437180320350946	-0.009244311604422312	-0.3672818543232456	0.1707924120861135	-0.009054019645179578	0.1391439710571112	11.48809312555963	15.35193759855447	-18.19173768652236	2.633714079087666	-636.842433849058	-15.47228613835317	-12.17392099809629	1.488715176918934	0.2274073099250114	0.3524060040903443	-3.357559972657534	-0.02966484708079904	-18.93539493435055	-0.8530558481328668	-3.236557859864527	-3.236557859870904	13.87152938950607	12.60991572606912	-1.405614980147558	-0.5043747264909995	1.902198247158602e-05	-1.570350861740959e-05	-1.200760364830653e-05	-2.820146261596824e-06	-9.327060798906915e-06	-1.735323941556374e-05	1.1173745825929e-05
1.56	-0.3155075729271847	-0.02974498733700963	0.7567926275078689	1.200438879817743	-0.1929862148476447	0.1173139208375114	-0.1875311883921515	0.9024264161509561	0.9024264161507285	-0.03104119126938964	-0.03343935100005981	0.2237461872073948	0.1314473952861092	0.7986264035856144	0.1528895702103921	0.4704388368208021	-2.133753894759525	0.0393011408515358	-0.3021182669184969	-0.09047209230770856	-1.578440327910294	-1.578440327910234	0.1599487314284751	-0.1727887442484689	-0.2904742894679134	-0.04283030508969212	-0.1355100611579848	0.09370810503384361	-0.01658016941397488	-0.3610793807794491	0.1662880158500894	-0.008372165098303479	0.1375911443803828	10.22311672511622	15.01608057730663	-17.83974961603111	2.733665055076632	-635.5673436707191	-15.52743592897573	-13.13601672854689	2.937299998091567	0.2947782325673327	0.4895382187119939	-4.939375441494892	-0.307842654525312	-46.56100915903828	-2.432842630114383	-3.295828084928795	-3.295828084928795	31.90897905198319	33.54795968026319	-1.228183380055854	-0.7230203497513259	1.467725157070755e-05	-1.27443911427155e-05	-1.288304122602747e-05	-2.268815093660852e-06	-7.030170750019581e-06	-1.393130830466822e-05	9.000970694479517e-06
1.57	-0.3073993619301131	-0.02820206066814948	0.7615178744099371	1.178881663718068	-0.1926049917977375	0.1124449386008296	-0.1885277851046759	0.8864753481063931	0.8864753481049852	-0.02820418661169998	-0.03381079427075454	0.2207772079546484	0.1309857433517868	0.8205331010824528	0.1556175151440135	0.4742230687154808	-2.174822436716058	0.03765050896461185	-0.6246950207967866	-0.1058464254297026	-1.611559972371727	-1.61155997237167	0.3750933316862198	0.06467611472098296	-0.3034924600584949	-0.04876245585935966	-0.1297789376300644	0.09452734370772359	-0.008635231314088965	-0.3617415843551605	0.1701503860173934	-0.008608230525101236	0.1350986538314601	11.63933487945838	14.94734164842679	-17.91634329971649	2.174969571605306	-632.5130377085662	-15.28210087491875	-14.14177864960285	1.44014128682907	0.2508203784662955	0.2673262909925617	-3.265158631213279	0.01182495367866163	-18.05680958786515	-0.6396050452677641	-3.285351794106687	-3.285351794115156	11.46569393605448	13.77235461598812	-1.368632478506014	-0.4206435782298921	-1.084983154649549e-05	8.686989382867074e-06	-3.223623258472936e-06	1.566086510911992e-06	5.623571337951374e-06	8.197546188019044e-06	-5.229540388641048e-06
1.58	-0.2991475266286154	-0.02663405099920698	0.7662698557541988	1.156998849185059	-0.1922191753848701	0.1057600286083277	-0.1895881004272126	0.870200019783255	0.8702000197830426	-0.02418603726658132	-0.03282226782957109	0.2176720472799202	0.1304863036822854	0.8273512650424555	0.1579061702268613	0.4757857252595116	-2.198873581012858	0.04021981345560811	-0.6653038181006786	-0.1032158142248011	-1.643292383527579	-1.643292383527524	0.3961776688793532	0.09920519811855194	-0.3177105738459192	-0.05038785213493742	-0.124047814101998	0.09534658238125891	-0.0006902932155703835	-0.3624037879304536	0.1740127561853858	-0.00884429595205913	0.1326061632825575	13.04685417716502	14.83484922876763	-17.93437620342721	1.613333554574173	-629.6298103400858	-15.34964281595935	-15.17644973610402	-0.08040670935678676	0.2069202624852924	0.0452231485952422	-1.535895909559997	0.536144621046021	9.832582155833874	1.168146235218346	-3.018381423827575	-3.018381423827575	-6.903073560951968	-7.039195434109935	-1.468172019324214	0.1383305490890626	-2.036360590605622e-05	1.610346373928906e-05	2.099989274767301e-06	2.951170818394105e-06	1.027187881064985e-05	1.666784927982992e-05	-1.073993612946526e-05
